<svg width="512" height="512" viewBox="0 0 512 512" fill="none" xmlns="http://www.w3.org/2000/svg">
  <rect width="512" height="512" rx="120" fill="url(#bg)"/>
  <path d="M108 166C108 139.49 129.49 118 156 118H356C382.51 118 404 139.49 404 166V346C404 372.51 382.51 394 356 394H156C129.49 394 108 372.51 108 346V166Z" fill="#FFF9EE"/>
  <path d="M108 182H404V208H108V182Z" fill="#E5D7B8"/>
  <circle cx="144" cy="195" r="9" fill="#D97706"/>
  <circle cx="176" cy="195" r="9" fill="#F59E0B"/>
  <circle cx="208" cy="195" r="9" fill="#14B8A6"/>
  <path d="M178 285L230 246L178 207" stroke="#0F766E" stroke-width="26" stroke-linecap="round" stroke-linejoin="round"/>
  <path d="M264 318H346" stroke="#D97706" stroke-width="26" stroke-linecap="round"/>
  <path d="M298 244C337.212 244 369 275.788 369 315C369 354.212 337.212 386 298 386" stroke="#0F766E" stroke-width="20" stroke-linecap="round"/>
  <defs>
    <linearGradient id="bg" x1="64" y1="52" x2="446" y2="460" gradientUnits="userSpaceOnUse">
      <stop stop-color="#0F766E"/>
      <stop offset="1" stop-color="#D97706"/>
    </linearGradient>
  </defs>
</svg>
